<svg width="24" height="24" viewBox="0 0 24 24" fill="none" xmlns="http://www.w3.org/2000/svg">
<path fill-rule="evenodd" clip-rule="evenodd" d="M5.99636 12C5.34406 12 4.86639 12.6144 5.02724 13.2466L6.42495 18.7398C6.76325 20.0693 7.96038 21 9.33231 21H14.6653C16.0384 21 17.2362 20.0678 17.5734 18.7367L18.9645 13.2456C19.1246 12.6137 18.647 12 17.9951 12H5.99636ZM9.00006 16C9.00006 15.4477 9.44777 15 10.0001 15C10.5523 15 11.0001 15.4477 11.0001 16V17C11.0001 17.5523 10.5523 18 10.0001 18C9.44777 18 9.00006 17.5523 9.00006 17V16ZM13.0001 16C13.0001 15.4477 13.4478 15 14.0001 15C14.5523 15 15.0001 15.4477 15.0001 16V17C15.0001 17.5523 14.5523 18 14.0001 18C13.4478 18 13.0001 17.5523 13.0001 17V16Z" fill="#F1F1F1"/>
<path d="M3 9C3 8.44772 3.44772 8 4 8H20C20.5523 8 21 8.44772 21 9C21 9.55228 20.5523 10 20 10H4C3.44772 10 3 9.55228 3 9Z" fill="#F1F1F1"/>
<path fill-rule="evenodd" clip-rule="evenodd" d="M10.7071 4.70711C11.0976 4.31658 11.0976 3.68342 10.7071 3.29289C10.3166 2.90237 9.68342 2.90237 9.29289 3.29289L8.29289 4.29289C7.90237 4.68342 7.90237 5.31658 8.29289 5.70711C8.68342 6.09763 9.31658 6.09763 9.70711 5.70711L10.7071 4.70711ZM13.2929 4.70711C12.9024 4.31658 12.9024 3.68342 13.2929 3.29289C13.6834 2.90237 14.3166 2.90237 14.7071 3.29289L15.7071 4.29289C16.0976 4.68342 16.0976 5.31658 15.7071 5.70711C15.3166 6.09763 14.6834 6.09763 14.2929 5.70711L13.2929 4.70711Z" fill="#F1F1F1"/>
</svg>
